<svg viewBox="0 0 1400 254" fill="none" xmlns="http://www.w3.org/2000/svg"><path fill="#FF8D00" d="M1040 .271h85v252.934h-85zM189.996.271h85v252.934h-85z"/><path fill-rule="evenodd" clip-rule="evenodd" d="M84.848 0H0v252.934h84.848v-.002H169.7v-84.311h-84.85V0ZM765.334 0h84.848v168.804h84.85V0h84.848v252.934h-74.043v.272H840v-.272h-74.666V0ZM295.273 0h169.699v84.311h-84.85v84.31h84.85v84.311h-84.85v.002h-84.849V0ZM1400 0v84.734h-84.85v168.2h-84.85V84.311h-84.85V0H1400ZM485.337 0H688.975v91.056h-.002v21.92h.002v84.311h-.002v.001h.003l56 55.646h-84.848l-56-55.645h-.004v-.002h-33.939v55.647h-84.848V0Zm118.787 91.056v21.92h-33.939v-21.92h33.939Z" fill="#FF8D00"/></svg>