<svg viewBox="0 0 1400 254" fill="none" xmlns="http://www.w3.org/2000/svg">
<rect x="1040" y="0.271484" width="84.9999" height="252.934" fill="#FF8D00"/>
<rect x="189.996" y="0.271484" width="84.9999" height="252.934" fill="#FF8D00"/>
<path fill-rule="evenodd" clip-rule="evenodd" d="M84.8483 0H0V252.934H84.8483V252.932L169.699 252.932V168.621H84.8483V0Z" fill="#FF8D00"/>
<path fill-rule="evenodd" clip-rule="evenodd" d="M765.334 0H850.182V168.804H935.032V0H1019.88V252.934H945.837V253.206H840V252.934H765.334V0Z" fill="#FF8D00"/>
<path fill-rule="evenodd" clip-rule="evenodd" d="M295.273 0H380.122V0.000142457L464.972 0.000146166V84.3115L380.122 84.3115V168.621H464.972V252.932H380.122V252.934H295.273V0Z" fill="#FF8D00"/>
<path fill-rule="evenodd" clip-rule="evenodd" d="M1400 4.02144e-06V84.7342H1315.15V252.934H1230.3V84.3114H1145.45L1145.45 3.12604e-07L1230.3 4.02144e-06L1308 0L1315.15 4.02144e-06H1400Z" fill="#FF8D00"/>
<path fill-rule="evenodd" clip-rule="evenodd" d="M485.337 0H570.185V0.000141354L604.124 0.000145831H688.973H688.975V91.0564H688.973V112.976H688.975V197.287H688.973V197.288H688.976L744.976 252.934H660.128L604.128 197.289H604.124V197.287L570.185 197.287V252.934H485.337V0ZM604.124 91.0564V112.976L570.185 112.976V91.0564L604.124 91.0564Z" fill="#FF8D00"/>
</svg>
