<svg width="165" height="30" viewBox="0 0 165 30" fill="none" xmlns="http://www.w3.org/2000/svg">
<g id="Group 26087897">
<rect id="Rectangle 535644" x="122.599" width="9.99998" height="30" fill="#FF4E08"/>
<rect id="Rectangle 535645" x="22.4007" width="9.99998" height="30" fill="#FF4E08"/>
<path id="Union" fill-rule="evenodd" clip-rule="evenodd" d="M9.99998 0H0V20V30H9.99998L20 30V20H9.99998V0Z" fill="#FF4E08"/>
<path id="Union_2" fill-rule="evenodd" clip-rule="evenodd" d="M90.2022 0H100.202L100.202 20H110.202V0H120.202V30H110.202H100.202H90.2022V0Z" fill="#FF4E08"/>
<path id="Union_3" fill-rule="evenodd" clip-rule="evenodd" d="M34.8007 20V9.99998V0H44.8006H54.8006V9.99998H44.8006V20H54.8006V30L44.8006 30H34.8007V20Z" fill="#FF4E08"/>
<path id="Union_4" fill-rule="evenodd" clip-rule="evenodd" d="M135 9.99998H145V30H155V9.99998H165V0H155H145H135L135 9.99998Z" fill="#FF4E08"/>
<path id="Union_5" fill-rule="evenodd" clip-rule="evenodd" d="M57.1984 0H57.199H67.1983H71.199H81.199V10.8V13.3998V23.3998V23.4L81.1989 23.4L87.7989 30H77.7989L71.1989 23.4L71.199 23.4V23.3998H67.1983V30H57.1984V0ZM71.199 10.8V13.3998L67.1983 13.3998V10.8L71.199 10.8Z" fill="#FF4E08"/>
</g>
</svg>
