<svg xmlns="http://www.w3.org/2000/svg" width="24" height="24" fill="none"><path fill="#FF8D00" d="M5.308 21.5c-.505 0-.933-.176-1.283-.526a1.745 1.745 0 0 1-.525-1.282V6.307c0-.505.175-.933.525-1.283.35-.35.778-.525 1.283-.525h1.384V2.384h1.539V4.5h7.577V2.384h1.5V4.5h1.384c.505 0 .933.175 1.283.525.35.35.525.778.525 1.283v13.385c0 .505-.175.932-.525 1.282-.35.35-.778.525-1.283.525H5.308Zm0-1.5h13.384a.294.294 0 0 0 .212-.097.294.294 0 0 0 .096-.211v-9.385H5v9.385c0 .077.032.147.096.211a.294.294 0 0 0 .212.096ZM5 8.806h14v-2.5a.294.294 0 0 0-.096-.211.294.294 0 0 0-.212-.097H5.308a.294.294 0 0 0-.212.097.294.294 0 0 0-.096.211v2.5Zm7 5.27a.853.853 0 0 1-.626-.26.853.853 0 0 1-.258-.625c0-.245.086-.454.258-.626a.853.853 0 0 1 .626-.259c.245 0 .454.086.626.259a.853.853 0 0 1 .258.626.853.853 0 0 1-.258.626.853.853 0 0 1-.626.258Zm-4 0a.853.853 0 0 1-.626-.26.853.853 0 0 1-.258-.625c0-.245.086-.454.258-.626A.853.853 0 0 1 8 12.307c.245 0 .454.086.626.259a.853.853 0 0 1 .258.626.853.853 0 0 1-.258.626.853.853 0 0 1-.626.258Zm8 0a.853.853 0 0 1-.626-.26.853.853 0 0 1-.258-.625c0-.245.086-.454.258-.626a.853.853 0 0 1 .626-.259c.245 0 .453.086.626.259a.853.853 0 0 1 .258.626.853.853 0 0 1-.258.626.853.853 0 0 1-.626.258Zm-4 3.922a.853.853 0 0 1-.626-.258.853.853 0 0 1-.258-.626c0-.245.086-.454.258-.626A.853.853 0 0 1 12 16.23c.245 0 .454.086.626.259a.853.853 0 0 1 .258.626.853.853 0 0 1-.258.626.853.853 0 0 1-.626.258Zm-4 0a.853.853 0 0 1-.626-.258.853.853 0 0 1-.258-.626c0-.245.086-.454.258-.626A.853.853 0 0 1 8 16.23c.245 0 .454.086.626.259a.853.853 0 0 1 .258.626.853.853 0 0 1-.258.626.853.853 0 0 1-.626.258Zm8 0a.853.853 0 0 1-.626-.258.853.853 0 0 1-.258-.626c0-.245.086-.454.258-.626A.853.853 0 0 1 16 16.23c.245 0 .453.086.626.259a.853.853 0 0 1 .258.626.853.853 0 0 1-.258.626.853.853 0 0 1-.626.258Z"/></svg>