<svg xmlns="http://www.w3.org/2000/svg" width="24" height="24" fill="none"><path fill="#ADAEB1" d="M12.002 15.577c1.133 0 2.096-.397 2.887-1.19.792-.793 1.188-1.756 1.188-2.89 0-1.132-.397-2.095-1.19-2.886-.793-.792-1.756-1.188-2.89-1.188-1.132 0-2.095.397-2.886 1.19-.792.793-1.188 1.756-1.188 2.89 0 1.132.397 2.095 1.19 2.886.793.792 1.756 1.188 2.89 1.188ZM12 14.2c-.75 0-1.387-.262-1.912-.787A2.604 2.604 0 0 1 9.3 11.5c0-.75.263-1.387.787-1.912A2.604 2.604 0 0 1 12 8.8c.75 0 1.387.262 1.912.787.525.526.788 1.163.788 1.913s-.262 1.387-.787 1.912A2.604 2.604 0 0 1 12 14.2Zm.001 4.3c-2.3 0-4.394-.634-6.285-1.903-1.891-1.269-3.284-2.968-4.177-5.097.893-2.13 2.285-3.829 4.175-5.097C7.604 5.134 9.699 4.5 11.999 4.5c2.3 0 4.394.634 6.286 1.903 1.89 1.269 3.283 2.968 4.177 5.097-.894 2.13-2.286 3.829-4.176 5.097-1.89 1.269-3.985 1.903-6.285 1.903ZM12 17a9.544 9.544 0 0 0 5.188-1.488A9.773 9.773 0 0 0 20.8 11.5a9.773 9.773 0 0 0-3.613-4.013A9.545 9.545 0 0 0 12 6a9.545 9.545 0 0 0-5.187 1.487A9.773 9.773 0 0 0 3.2 11.5a9.773 9.773 0 0 0 3.613 4.012A9.544 9.544 0 0 0 12 17Z"/></svg>