<svg xmlns="http://www.w3.org/2000/svg" width="24" height="24" fill="none"><path fill="#ADAEB1" d="M15.773 12.973 14.65 11.85c.15-.828-.086-1.573-.709-2.234-.622-.66-1.386-.916-2.291-.766l-1.123-1.123A3.449 3.449 0 0 1 12 7.423c1.135 0 2.098.396 2.89 1.187.791.792 1.187 1.755 1.187 2.89 0 .282-.025.545-.076.788-.05.244-.127.472-.228.685Zm3.18 3.111L17.85 15.05a10.951 10.951 0 0 0 1.688-1.588A8.899 8.899 0 0 0 20.8 11.5c-.833-1.683-2.03-3.02-3.588-4.013C15.654 6.496 13.917 6 12 6c-.483 0-.958.033-1.425.1a9.625 9.625 0 0 0-1.375.3L8.035 5.235a10.086 10.086 0 0 1 1.936-.556c.66-.12 1.335-.18 2.029-.18 2.344 0 4.457.647 6.34 1.94 1.884 1.292 3.257 2.979 4.122 5.06-.371.894-.85 1.728-1.436 2.503a11.086 11.086 0 0 1-2.072 2.082Zm.809 5.785-4.046-4.015c-.513.19-1.082.345-1.705.465-.624.12-1.294.18-2.011.18-2.35 0-4.463-.645-6.34-1.938-1.877-1.292-3.251-2.98-4.122-5.061.37-.883.847-1.707 1.431-2.472a11.367 11.367 0 0 1 1.93-1.99l-2.768-2.8 1.054-1.053 17.63 17.63-1.053 1.054ZM5.954 8.092c-.528.42-1.042.926-1.542 1.517-.499.59-.903 1.22-1.212 1.89.833 1.684 2.03 3.022 3.587 4.013C8.346 16.504 10.083 17 12 17a8.07 8.07 0 0 0 1.36-.116c.45-.076.834-.156 1.148-.238l-1.266-1.296c-.17.07-.368.124-.592.165a3.598 3.598 0 0 1-.65.062c-1.135 0-2.098-.396-2.89-1.188-.791-.791-1.187-1.754-1.187-2.89 0-.202.02-.413.062-.635.04-.22.096-.423.165-.606L5.954 8.092Z"/></svg>