<svg xmlns="http://www.w3.org/2000/svg" width="24" height="24" fill="none"><path fill="current" d="m19.543 20.577-6.28-6.28c-.5.412-1.076.735-1.726.968-.65.234-1.322.35-2.017.35-1.71 0-3.156-.591-4.34-1.775-1.183-1.183-1.775-2.63-1.775-4.338 0-1.709.591-3.156 1.775-4.34 1.183-1.185 2.63-1.777 4.338-1.777 1.71 0 3.156.592 4.34 1.776 1.185 1.183 1.777 2.63 1.777 4.34 0 .713-.12 1.395-.36 2.045-.24.65-.56 1.216-.96 1.696l6.282 6.281-1.054 1.054ZM9.52 14.116c1.288 0 2.38-.447 3.274-1.342.894-.894 1.341-1.985 1.341-3.274 0-1.288-.447-2.38-1.341-3.274-.894-.894-1.986-1.341-3.274-1.341-1.289 0-2.38.447-3.274 1.341-.894.894-1.342 1.986-1.342 3.274 0 1.289.448 2.38 1.342 3.274.894.895 1.985 1.342 3.274 1.342Z"/></svg>