<svg xmlns="http://www.w3.org/2000/svg" width="24" height="24" fill="none"><path fill="#FF8D00" d="M5.308 20.501c-.505 0-.933-.175-1.283-.525a1.745 1.745 0 0 1-.525-1.283V5.31c0-.505.175-.933.525-1.283.35-.35.778-.525 1.283-.525h8.655l-1.5 1.5H5.308a.294.294 0 0 0-.212.096A.294.294 0 0 0 5 5.31v13.384c0 .077.032.148.096.212a.293.293 0 0 0 .212.096h13.384a.294.294 0 0 0 .212-.096.294.294 0 0 0 .096-.212v-7.219l1.5-1.5v8.72c0 .504-.175.932-.525 1.282-.35.35-.778.525-1.283.525H5.308Zm4.192-6v-3.433l9.06-9.06c.155-.154.325-.268.511-.339.186-.07.375-.107.567-.107.197 0 .385.036.566.107.18.071.345.181.494.33l1.256 1.252c.145.155.256.326.334.514.077.187.116.376.116.569 0 .192-.033.379-.1.56-.065.18-.176.348-.331.503l-9.088 9.104H9.5Zm1.5-1.5h1.246l6.233-6.233-.623-.623-.668-.642L11 11.691v1.31Z"/></svg>