<svg xmlns="http://www.w3.org/2000/svg" width="24" height="24" fill="none"><path fill="#FF8D00" d="M5.307 21.5c-.499 0-.925-.177-1.278-.53a1.742 1.742 0 0 1-.53-1.278V8.307c0-.499.177-.925.53-1.278.353-.353.78-.53 1.278-.53h2.192c0-1.248.438-2.31 1.314-3.186.875-.876 1.938-1.314 3.186-1.314 1.249 0 2.311.438 3.187 1.314.875.875 1.313 1.938 1.313 3.186h2.193c.498 0 .924.177 1.277.53.354.353.53.78.53 1.278v11.385c0 .498-.176.924-.53 1.277-.353.354-.779.53-1.277.53H5.307Zm0-1.5h13.385a.293.293 0 0 0 .211-.097.294.294 0 0 0 .096-.211V8.307a.294.294 0 0 0-.096-.211.294.294 0 0 0-.211-.097H5.307a.294.294 0 0 0-.212.097.294.294 0 0 0-.096.211v11.385c0 .076.032.147.096.211a.293.293 0 0 0 .212.096Zm6.692-6.5c1.249 0 2.311-.439 3.187-1.314.875-.876 1.313-1.938 1.313-3.187H15c0 .834-.292 1.542-.875 2.125A2.893 2.893 0 0 1 12 12a2.893 2.893 0 0 1-2.125-.875A2.893 2.893 0 0 1 9 9H7.5c0 1.249.438 2.311 1.314 3.187.875.875 1.938 1.313 3.186 1.313Zm-3-7h6c0-.834-.292-1.542-.875-2.126A2.893 2.893 0 0 0 12 3.5c-.833 0-1.542.292-2.125.875A2.893 2.893 0 0 0 9 6.5Z"/></svg>