<svg xmlns="http://www.w3.org/2000/svg" width="24" height="24" fill="none"><path fill="#FF8D00" d="m10.972 11.616 6.71-6.72a.727.727 0 0 1 .526-.232c.196 0 .372.078.527.233.155.155.233.33.233.526a.727.727 0 0 1-.233.527l-6.694 6.71-1.07-1.044Zm2.398 2.388 5.994-6.01a.735.735 0 0 1 .534-.232c.202 0 .38.078.535.233a.735.735 0 0 1 .233.534c0 .202-.078.38-.233.535l-6.004 5.994-1.06-1.054Zm-7.883 4.49c-1.427-1.426-2.139-3.14-2.136-5.138.004-1.998.722-3.714 2.155-5.148L8.44 5.275 9.673 6.52c.15.148.269.308.358.478.09.17.164.35.221.541l3.662-3.677a.735.735 0 0 1 .534-.233c.202 0 .38.078.535.233a.736.736 0 0 1 .233.535c0 .2-.078.379-.233.534l-4.335 4.335-1.846 1.84.485.485c.702.703 1.043 1.545 1.023 2.529-.02.983-.387 1.831-1.1 2.544l-.096.096-1.06-1.054.087-.096a2.17 2.17 0 0 0 .661-1.482 1.896 1.896 0 0 0-.584-1.483l-.906-.89a.881.881 0 0 1-.271-.646c0-.25.09-.464.271-.645l1.271-1.246c.232-.232.348-.511.348-.838 0-.326-.116-.605-.348-.837l-.144-.145-1.879 1.87c-1.14 1.14-1.714 2.502-1.724 4.086-.01 1.585.556 2.947 1.695 4.087 1.14 1.14 2.51 1.71 4.109 1.71 1.6 0 2.969-.57 4.108-1.71l5.649-5.663a.735.735 0 0 1 .534-.233c.201 0 .38.077.535.232a.735.735 0 0 1 .232.535c0 .201-.077.38-.232.535l-5.673 5.648c-1.434 1.433-3.151 2.15-5.153 2.15s-3.72-.717-5.153-2.15Zm11.148 3.907-.01-1.516c1.177 0 2.181-.416 3.013-1.247.831-.832 1.247-1.836 1.247-3.013l1.515.01c0 1.596-.561 2.956-1.685 4.08s-2.484 1.686-4.08 1.686ZM1.6 7.366c0-1.596.562-2.956 1.686-4.08C4.41 2.162 5.77 1.6 7.366 1.6l.01 1.516c-1.177 0-2.182.416-3.013 1.247-.831.831-1.247 1.836-1.247 3.012L1.6 7.366Z"/></svg>